<svg width="35" height="35" viewBox="0 0 35 35" fill="none" xmlns="http://www.w3.org/2000/svg">
<path opacity="0.2" d="M4.375 5.46875H13.125V29.5312H4.375V5.46875ZM21.875 12.0312V29.5312H30.625V12.0312H21.875Z" fill="black"/>
<path d="M32.8125 28.4375H31.7188V12.0312C31.7188 11.7412 31.6035 11.463 31.3984 11.2579C31.1933 11.0527 30.9151 10.9375 30.625 10.9375H21.875C21.5849 10.9375 21.3067 11.0527 21.1016 11.2579C20.8965 11.463 20.7812 11.7412 20.7812 12.0312V17.5H14.2188V5.46875C14.2188 5.17867 14.1035 4.90047 13.8984 4.69535C13.6933 4.49023 13.4151 4.375 13.125 4.375H4.375C4.08492 4.375 3.80672 4.49023 3.6016 4.69535C3.39648 4.90047 3.28125 5.17867 3.28125 5.46875V28.4375H2.1875C1.89742 28.4375 1.61922 28.5527 1.4141 28.7579C1.20898 28.963 1.09375 29.2412 1.09375 29.5312C1.09375 29.8213 1.20898 30.0995 1.4141 30.3046C1.61922 30.5098 1.89742 30.625 2.1875 30.625H32.8125C33.1026 30.625 33.3808 30.5098 33.5859 30.3046C33.791 30.0995 33.9062 29.8213 33.9062 29.5312C33.9062 29.2412 33.791 28.963 33.5859 28.7579C33.3808 28.5527 33.1026 28.4375 32.8125 28.4375ZM22.9688 13.125H29.5312V28.4375H22.9688V13.125ZM20.7812 19.6875V28.4375H14.2188V19.6875H20.7812ZM5.46875 6.5625H12.0312V28.4375H5.46875V6.5625ZM9.84375 9.84375V12.0312C9.84375 12.3213 9.72852 12.5995 9.5234 12.8046C9.31828 13.0098 9.04008 13.125 8.75 13.125C8.45992 13.125 8.18172 13.0098 7.9766 12.8046C7.77148 12.5995 7.65625 12.3213 7.65625 12.0312V9.84375C7.65625 9.55367 7.77148 9.27547 7.9766 9.07035C8.18172 8.86523 8.45992 8.75 8.75 8.75C9.04008 8.75 9.31828 8.86523 9.5234 9.07035C9.72852 9.27547 9.84375 9.55367 9.84375 9.84375ZM9.84375 16.4062V18.5938C9.84375 18.8838 9.72852 19.162 9.5234 19.3671C9.31828 19.5723 9.04008 19.6875 8.75 19.6875C8.45992 19.6875 8.18172 19.5723 7.9766 19.3671C7.77148 19.162 7.65625 18.8838 7.65625 18.5938V16.4062C7.65625 16.1162 7.77148 15.838 7.9766 15.6329C8.18172 15.4277 8.45992 15.3125 8.75 15.3125C9.04008 15.3125 9.31828 15.4277 9.5234 15.6329C9.72852 15.838 9.84375 16.1162 9.84375 16.4062ZM9.84375 22.9688V25.1562C9.84375 25.4463 9.72852 25.7245 9.5234 25.9296C9.31828 26.1348 9.04008 26.25 8.75 26.25C8.45992 26.25 8.18172 26.1348 7.9766 25.9296C7.77148 25.7245 7.65625 25.4463 7.65625 25.1562V22.9688C7.65625 22.6787 7.77148 22.4005 7.9766 22.1954C8.18172 21.9902 8.45992 21.875 8.75 21.875C9.04008 21.875 9.31828 21.9902 9.5234 22.1954C9.72852 22.4005 9.84375 22.6787 9.84375 22.9688ZM16.4062 25.1562V22.9688C16.4062 22.6787 16.5215 22.4005 16.7266 22.1954C16.9317 21.9902 17.2099 21.875 17.5 21.875C17.7901 21.875 18.0683 21.9902 18.2734 22.1954C18.4785 22.4005 18.5938 22.6787 18.5938 22.9688V25.1562C18.5938 25.4463 18.4785 25.7245 18.2734 25.9296C18.0683 26.1348 17.7901 26.25 17.5 26.25C17.2099 26.25 16.9317 26.1348 16.7266 25.9296C16.5215 25.7245 16.4062 25.4463 16.4062 25.1562ZM25.1562 25.1562V22.9688C25.1562 22.6787 25.2715 22.4005 25.4766 22.1954C25.6817 21.9902 25.9599 21.875 26.25 21.875C26.5401 21.875 26.8183 21.9902 27.0234 22.1954C27.2285 22.4005 27.3438 22.6787 27.3438 22.9688V25.1562C27.3438 25.4463 27.2285 25.7245 27.0234 25.9296C26.8183 26.1348 26.5401 26.25 26.25 26.25C25.9599 26.25 25.6817 26.1348 25.4766 25.9296C25.2715 25.7245 25.1562 25.4463 25.1562 25.1562ZM25.1562 18.5938V16.4062C25.1562 16.1162 25.2715 15.838 25.4766 15.6329C25.6817 15.4277 25.9599 15.3125 26.25 15.3125C26.5401 15.3125 26.8183 15.4277 27.0234 15.6329C27.2285 15.838 27.3438 16.1162 27.3438 16.4062V18.5938C27.3438 18.8838 27.2285 19.162 27.0234 19.3671C26.8183 19.5723 26.5401 19.6875 26.25 19.6875C25.9599 19.6875 25.6817 19.5723 25.4766 19.3671C25.2715 19.162 25.1562 18.8838 25.1562 18.5938Z" fill="black"/>
</svg>
