<svg width="25" height="25" viewBox="0 0 25 25" fill="none" xmlns="http://www.w3.org/2000/svg">
<path d="M4.16663 7.29159C4.16663 6.73905 4.38612 6.20915 4.77682 5.81845C5.16752 5.42775 5.69742 5.20825 6.24996 5.20825H18.75C19.3025 5.20825 19.8324 5.42775 20.2231 5.81845C20.6138 6.20915 20.8333 6.73905 20.8333 7.29159V19.7916C20.8333 20.3441 20.6138 20.874 20.2231 21.2647C19.8324 21.6554 19.3025 21.8749 18.75 21.8749H6.24996C5.69742 21.8749 5.16752 21.6554 4.77682 21.2647C4.38612 20.874 4.16663 20.3441 4.16663 19.7916V7.29159Z" stroke="black" stroke-width="2" stroke-linecap="round" stroke-linejoin="round"/>
<path d="M16.6666 3.125V7.29167" stroke="black" stroke-width="2" stroke-linecap="round" stroke-linejoin="round"/>
<path d="M8.33337 3.125V7.29167" stroke="black" stroke-width="2" stroke-linecap="round" stroke-linejoin="round"/>
<path d="M4.16663 11.4583H20.8333" stroke="black" stroke-width="2" stroke-linecap="round" stroke-linejoin="round"/>
<path d="M8.33337 15.625H10.4167V17.7083H8.33337V15.625Z" stroke="black" stroke-width="2" stroke-linecap="round" stroke-linejoin="round"/>
</svg>
