<svg width="25" height="25" viewBox="0 0 25 25" fill="none" xmlns="http://www.w3.org/2000/svg">
<path d="M12.0833 1.66675C6.35412 1.66675 1.66663 6.36261 1.66663 12.1462C1.66663 17.3754 5.47912 21.7157 10.4583 22.5001V15.1791H7.81245V12.1462H10.4583V9.83483C10.4583 7.20975 12.0104 5.76648 14.3958 5.76648C15.5312 5.76648 16.7187 5.96519 16.7187 5.96519V8.54844H15.4062C14.1145 8.54844 13.7083 9.35374 13.7083 10.18V12.1462H16.6041L16.1354 15.1791H13.7083V22.5001C16.1629 22.1108 18.3981 20.8534 20.0103 18.9547C21.6224 17.056 22.5056 14.6412 22.4999 12.1462C22.4999 6.36261 17.8124 1.66675 12.0833 1.66675Z" fill="black"/>
</svg>
