<svg width="30" height="30" viewBox="0 0 30 30" fill="none" xmlns="http://www.w3.org/2000/svg">
<path fill-rule="evenodd" clip-rule="evenodd" d="M25.9375 8.75C25.9375 9.26776 25.5177 9.6875 25 9.6875H5C4.48224 9.6875 4.0625 9.26776 4.0625 8.75C4.0625 8.23224 4.48224 7.8125 5 7.8125H25C25.5177 7.8125 25.9375 8.23224 25.9375 8.75Z" fill="black"/>
<path fill-rule="evenodd" clip-rule="evenodd" d="M25.9375 15C25.9375 15.5178 25.5177 15.9375 25 15.9375H5C4.48224 15.9375 4.0625 15.5178 4.0625 15C4.0625 14.4822 4.48224 14.0625 5 14.0625H25C25.5177 14.0625 25.9375 14.4822 25.9375 15Z" fill="black"/>
<path fill-rule="evenodd" clip-rule="evenodd" d="M25.9375 21.25C25.9375 21.7678 25.5177 22.1875 25 22.1875H5C4.48224 22.1875 4.0625 21.7678 4.0625 21.25C4.0625 20.7322 4.48224 20.3125 5 20.3125H25C25.5177 20.3125 25.9375 20.7322 25.9375 21.25Z" fill="black"/>
</svg>
