<svg width="35" height="35" viewBox="0 0 35 35" fill="none" xmlns="http://www.w3.org/2000/svg">
<path d="M19.6875 24.6094C19.6875 25.042 19.5592 25.465 19.3188 25.8247C19.0785 26.1844 18.7368 26.4648 18.3371 26.6304C17.9374 26.7959 17.4976 26.8392 17.0732 26.7548C16.6489 26.6704 16.2591 26.4621 15.9532 26.1562C15.6473 25.8502 15.4389 25.4605 15.3545 25.0361C15.2701 24.6118 15.3135 24.172 15.479 23.7723C15.6446 23.3725 15.925 23.0309 16.2847 22.7905C16.6444 22.5502 17.0674 22.4219 17.5 22.4219C18.0802 22.4219 18.6366 22.6523 19.0468 23.0626C19.457 23.4728 19.6875 24.0292 19.6875 24.6094ZM32.2656 17.5C32.2656 20.4204 31.3996 23.2751 29.7772 25.7033C28.1547 28.1315 25.8486 30.0241 23.1506 31.1417C20.4525 32.2592 17.4836 32.5516 14.6194 31.9819C11.7551 31.4122 9.12414 30.0059 7.05913 27.9409C4.99412 25.8759 3.58783 23.2449 3.0181 20.3806C2.44836 17.5164 2.74077 14.5475 3.85835 11.8494C4.97592 9.15137 6.86847 6.8453 9.29666 5.22283C11.7249 3.60036 14.5796 2.73438 17.5 2.73438C21.4148 2.73872 25.1679 4.29577 27.9361 7.06392C30.7042 9.83207 32.2613 13.5852 32.2656 17.5ZM28.9844 17.5C28.9844 15.2286 28.3108 13.0082 27.0489 11.1196C25.787 9.23103 23.9934 7.75905 21.8949 6.88982C19.7964 6.0206 17.4873 5.79317 15.2595 6.23629C13.0318 6.67942 10.9854 7.7732 9.37933 9.37932C7.77321 10.9854 6.67943 13.0318 6.2363 15.2595C5.79317 17.4873 6.0206 19.7964 6.88983 21.8949C7.75905 23.9934 9.23103 25.787 11.1196 27.0489C13.0082 28.3108 15.2286 28.9844 17.5 28.9844C20.5449 28.9811 23.4641 27.7701 25.6171 25.6171C27.7701 23.464 28.9811 20.5448 28.9844 17.5ZM17.5 8.75C14.1832 8.75 11.4844 11.2027 11.4844 14.2188V14.7656C11.4844 15.2007 11.6572 15.618 11.9649 15.9257C12.2726 16.2334 12.6899 16.4062 13.125 16.4062C13.5601 16.4062 13.9774 16.2334 14.2851 15.9257C14.5928 15.618 14.7656 15.2007 14.7656 14.7656V14.2188C14.7656 13.0129 15.9961 12.0312 17.5 12.0312C19.0039 12.0312 20.2344 13.0129 20.2344 14.2188C20.2344 15.4246 19.0039 16.4062 17.5 16.4062C17.0649 16.4062 16.6476 16.5791 16.3399 16.8868C16.0322 17.1945 15.8594 17.6118 15.8594 18.0469V19.1406C15.8584 19.546 16.0075 19.9373 16.278 20.2392C16.5484 20.5411 16.921 20.7323 17.324 20.7757C17.727 20.8192 18.1319 20.712 18.4605 20.4747C18.7891 20.2374 19.0182 19.8868 19.1037 19.4906C21.644 18.8508 23.5156 16.7303 23.5156 14.2188C23.5156 11.2027 20.8168 8.75 17.5 8.75Z" fill="black"/>
</svg>
