<svg width="25" height="25" viewBox="0 0 25 25" fill="none" xmlns="http://www.w3.org/2000/svg">
<path fill-rule="evenodd" clip-rule="evenodd" d="M1.5625 6.64062C1.5625 5.56195 2.43695 4.6875 3.51562 4.6875H21.4844C22.563 4.6875 23.4375 5.56195 23.4375 6.64062V9.79307C23.4375 10.0719 23.2889 10.3297 23.0474 10.4694C22.3449 10.8757 21.875 11.6334 21.875 12.5C21.875 13.3666 22.3449 14.1243 23.0474 14.5306C23.2889 14.6703 23.4375 14.928 23.4375 15.207V18.3594C23.4375 19.438 22.563 20.3125 21.4844 20.3125H3.51562C2.43695 20.3125 1.5625 19.438 1.5625 18.3594V15.207C1.5625 14.928 1.71116 14.6703 1.95256 14.5306C2.65515 14.1243 3.125 13.3666 3.125 12.5C3.125 11.6334 2.65515 10.8757 1.95256 10.4694C1.71116 10.3297 1.5625 10.0719 1.5625 9.79307V6.64062ZM17.1875 5.46875C17.619 5.46875 17.9688 5.81853 17.9688 6.25V7.03125C17.9688 7.46272 17.619 7.8125 17.1875 7.8125C16.756 7.8125 16.4062 7.46272 16.4062 7.03125V6.25C16.4062 5.81853 16.756 5.46875 17.1875 5.46875ZM17.9688 10.1562C17.9688 9.72478 17.619 9.375 17.1875 9.375C16.756 9.375 16.4062 9.72478 16.4062 10.1562V10.9375C16.4062 11.369 16.756 11.7187 17.1875 11.7187C17.619 11.7187 17.9688 11.369 17.9688 10.9375V10.1562ZM17.1875 13.2812C17.619 13.2812 17.9688 13.631 17.9688 14.0625V14.8438C17.9688 15.2752 17.619 15.625 17.1875 15.625C16.756 15.625 16.4062 15.2752 16.4062 14.8438V14.0625C16.4062 13.631 16.756 13.2812 17.1875 13.2812ZM17.9688 17.9687C17.9688 17.5373 17.619 17.1875 17.1875 17.1875C16.756 17.1875 16.4062 17.5373 16.4062 17.9687V18.75C16.4062 19.1815 16.756 19.5312 17.1875 19.5312C17.619 19.5312 17.9688 19.1815 17.9688 18.75V17.9687ZM6.25 12.5C6.25 12.0685 6.59978 11.7187 7.03125 11.7187H12.5C12.9315 11.7187 13.2812 12.0685 13.2812 12.5C13.2812 12.9315 12.9315 13.2812 12.5 13.2812H7.03125C6.59978 13.2812 6.25 12.9315 6.25 12.5ZM7.03125 14.8438C6.59978 14.8438 6.25 15.1935 6.25 15.625C6.25 16.0565 6.59978 16.4062 7.03125 16.4062H10.1562C10.5877 16.4062 10.9375 16.0565 10.9375 15.625C10.9375 15.1935 10.5877 14.8438 10.1562 14.8438H7.03125Z" fill="black"/>
</svg>
