<svg width="35" height="35" viewBox="0 0 35 35" fill="none" xmlns="http://www.w3.org/2000/svg">
<path d="M7.29163 24.7917C7.29163 25.5652 7.59892 26.3071 8.1459 26.8541C8.69288 27.401 9.43474 27.7083 10.2083 27.7083C10.9818 27.7083 11.7237 27.401 12.2707 26.8541C12.8177 26.3071 13.125 25.5652 13.125 24.7917C13.125 24.0181 12.8177 23.2763 12.2707 22.7293C11.7237 22.1823 10.9818 21.875 10.2083 21.875C9.43474 21.875 8.69288 22.1823 8.1459 22.7293C7.59892 23.2763 7.29163 24.0181 7.29163 24.7917Z" stroke="black" stroke-width="3" stroke-linecap="round" stroke-linejoin="round"/>
<path d="M21.875 24.7917C21.875 25.5652 22.1823 26.3071 22.7293 26.8541C23.2763 27.401 24.0181 27.7083 24.7917 27.7083C25.5652 27.7083 26.3071 27.401 26.8541 26.8541C27.401 26.3071 27.7083 25.5652 27.7083 24.7917C27.7083 24.0181 27.401 23.2763 26.8541 22.7293C26.3071 22.1823 25.5652 21.875 24.7917 21.875C24.0181 21.875 23.2763 22.1823 22.7293 22.7293C22.1823 23.2763 21.875 24.0181 21.875 24.7917Z" stroke="black" stroke-width="3" stroke-linecap="round" stroke-linejoin="round"/>
<path d="M7.29167 24.7917H4.375V16.0417M4.375 16.0417L7.29167 8.75H20.4167L26.25 16.0417M4.375 16.0417H26.25M26.25 16.0417H27.7083C28.4819 16.0417 29.2237 16.349 29.7707 16.8959C30.3177 17.4429 30.625 18.1848 30.625 18.9583V24.7917H27.7083M21.875 24.7917H13.125M17.5 16.0417V8.75" stroke="black" stroke-width="3" stroke-linecap="round" stroke-linejoin="round"/>
</svg>
