<svg width="25" height="25" viewBox="0 0 25 25" fill="none" xmlns="http://www.w3.org/2000/svg">
<path d="M2.08337 8.33341C2.08337 7.22835 2.52236 6.16854 3.30376 5.38714C4.08516 4.60573 5.14497 4.16675 6.25004 4.16675H18.75C19.8551 4.16675 20.9149 4.60573 21.6963 5.38714C22.4777 6.16854 22.9167 7.22835 22.9167 8.33341V16.6667C22.9167 17.7718 22.4777 18.8316 21.6963 19.613C20.9149 20.3944 19.8551 20.8334 18.75 20.8334H6.25004C5.14497 20.8334 4.08516 20.3944 3.30376 19.613C2.52236 18.8316 2.08337 17.7718 2.08337 16.6667V8.33341Z" stroke="black" stroke-width="1.5" stroke-linecap="round" stroke-linejoin="round"/>
<path d="M10.4166 9.375L15.625 12.5L10.4166 15.625V9.375Z" stroke="black" stroke-width="1.5" stroke-linecap="round" stroke-linejoin="round"/>
</svg>
